<?xml version="1.0" encoding="utf-8"?>
<svg viewBox="181.963 190.356 122.87 120.81" xmlns="http://www.w3.org/2000/svg" xmlns:bx="https://boxy-svg.com">
  <g transform="matrix(1, 0, 0, 1, 181.963165, 190.356094)">
    <path d="M 31.4 21.63 L 92.08 21.63 L 92.08 7.68 C 92.08 7.6 92.06 7.52 92.04 7.46 C 92.01 7.39 91.96 7.32 91.91 7.27 L 91.9 7.26 C 91.85 7.2 91.78 7.16 91.71 7.13 C 91.64 7.1 91.56 7.09 91.48 7.09 L 7.68 7.09 C 7.6 7.09 7.52 7.11 7.46 7.13 C 7.39 7.15 7.32 7.2 7.25 7.26 L 7.23 7.28 C 7.19 7.33 7.15 7.39 7.12 7.46 C 7.09 7.53 7.08 7.6 7.08 7.68 L 7.08 91.48 C 7.08 91.56 7.1 91.64 7.13 91.7 L 7.14 91.73 C 7.17 91.79 7.21 91.86 7.26 91.91 C 7.32 91.97 7.39 92.01 7.46 92.04 L 7.48 92.05 C 7.54 92.07 7.61 92.09 7.68 92.09 L 23.72 92.09 L 23.72 29.31 C 23.72 28.28 23.93 27.28 24.3 26.38 C 24.69 25.44 25.26 24.59 25.97 23.88 L 26.01 23.84 C 26.71 23.15 27.55 22.59 28.47 22.21 C 29.38 21.84 30.37 21.63 31.4 21.63 Z M 99.15 21.63 L 115.19 21.63 C 116.22 21.63 117.22 21.84 118.12 22.22 C 119.06 22.61 119.91 23.18 120.62 23.89 L 120.66 23.93 C 121.35 24.63 121.91 25.46 122.29 26.38 C 122.67 27.29 122.87 28.28 122.87 29.32 L 122.87 113.12 C 122.87 114.16 122.66 115.15 122.29 116.05 C 121.9 116.99 121.33 117.84 120.62 118.55 C 119.91 119.26 119.07 119.83 118.12 120.22 C 117.21 120.6 116.22 120.81 115.19 120.81 L 31.4 120.81 C 30.37 120.81 29.38 120.6 28.47 120.23 C 27.53 119.84 26.68 119.27 25.97 118.56 C 25.26 117.85 24.69 117 24.3 116.06 C 23.92 115.15 23.72 114.16 23.72 113.13 L 23.72 99.16 L 7.68 99.16 C 6.65 99.16 5.65 98.95 4.75 98.57 C 3.81 98.18 2.96 97.61 2.25 96.9 C 1.54 96.19 0.97 95.34 0.58 94.4 C 0.21 93.5 0 92.51 0 91.48 L 0 7.68 C 0 6.64 0.21 5.65 0.58 4.75 C 0.97 3.81 1.54 2.96 2.25 2.25 C 2.96 1.54 3.8 0.97 4.75 0.58 C 5.66 0.21 6.65 0 7.68 0 L 91.47 0 C 92.51 0 93.5 0.21 94.4 0.58 C 95.34 0.97 96.19 1.54 96.9 2.25 C 98.3 3.65 99.16 5.56 99.16 7.68 L 99.16 21.63 L 99.15 21.63 Z M 115.2 28.7 L 31.4 28.7 C 31.32 28.7 31.25 28.72 31.18 28.74 C 31.1 28.77 31.03 28.82 30.98 28.88 L 30.97 28.89 C 30.91 28.94 30.87 29.01 30.84 29.08 C 30.81 29.15 30.8 29.22 30.8 29.3 L 30.8 113.1 C 30.8 113.18 30.82 113.26 30.84 113.32 C 30.87 113.39 30.92 113.46 30.98 113.52 L 31 113.54 C 31.05 113.59 31.12 113.63 31.18 113.65 C 31.25 113.68 31.32 113.69 31.4 113.69 L 115.19 113.69 C 115.27 113.69 115.35 113.67 115.41 113.65 L 115.43 113.64 C 115.5 113.61 115.56 113.57 115.61 113.51 C 115.66 113.45 115.71 113.39 115.74 113.32 L 115.75 113.3 C 115.77 113.24 115.78 113.17 115.78 113.09 L 115.78 29.29 C 115.78 29.21 115.76 29.14 115.74 29.07 L 115.73 29.05 C 115.7 28.99 115.66 28.93 115.61 28.88 C 115.55 28.82 115.48 28.77 115.41 28.74 C 115.35 28.72 115.28 28.7 115.2 28.7 Z"/>
  </g>
  <path d="M 252.694 239.12 H 262.27 V 258.272 H 281.422 V 267.848 H 262.27 V 287 H 252.694 V 267.848 H 233.542 V 258.272 H 252.694 Z" style="" transform="matrix(0.707107, 0.707107, -0.707107, 0.707107, 259.088196, -105.955246)" bx:shape="cross 233.542 239.12 47.88 47.88 9.576 9.576 0.5 1@cf9b5339" bx:origin="-0.589 -0.549"/>
</svg>